:SAMPLES-PER-SECOND 30
:FULLY-SPECIFIED
:DEGREES
133
root  -4.26754 37.4574 -5.08826 -4.03894 -49.1002 4.04137
RightUpLeg  -21.2739 2.29702 -7.65522
RightLeg  38.1822 2.0661 1.46833
RightFoot  -16.4938 0.00612812 2.6182
RightToes  -3.0268e-009 0 -3.6325e-017
Spine  14.3034 -1.09066 -5.34316
Spine1  3.48244 -1.91431 3.38264
HEad  -19.6524 -22.748 6.44597
LeftShoulder1  -0.542025 4.80698 -35.3584
LeftArm  3.85897 3.81294 -44.0875
LeftForeArm  32.7741 -48.3857 -10.1777
LeftHand  -0.0267856 7.41572 0.568071
RightShoulder  -1.5216 -7.23413 34.2411
RightArm  17.9917 -6.37838 39.8617
RightForeArm  13.4539 13.75 6.13518
RightHand  -0.112369 2.49929 -1.84918
LeftUpLeg  -13.2845 -4.42508 8.66889
LeftLeg  51.6689 0.812582 1.6327
LeftFoot  -1.87653 -0.0606939 0.820658
LeftToes  2.52475e-009 -1.26109e-010 3.16044e-011
134
root  -5.24612 37.7864 -4.75725 -4.89126 -53.7108 4.27877
RightUpLeg  -18.6065 5.65157 -6.43373
RightLeg  35.8214 3.01367 2.0587
RightFoot  -16.9895 -0.00154571 2.29745
RightToes  -3.0268e-009 0 -3.6325e-017
Spine  13.2403 -0.876108 -4.2841
Spine1  3.17006 -1.57289 3.95509
HEad  -18.8372 -20.3103 4.57895
LeftShoulder1  -0.683739 5.12816 -35.887
LeftArm  2.87522 4.04223 -42.9929
LeftForeArm  32.3348 -44.7909 -8.87397
LeftHand  -0.0358554 6.01293 -0.307554
RightShoulder  -1.42391 -7.05407 33.578
RightArm  18.6424 -3.00795 40.1707
RightForeArm  11.8279 15.1363 5.79819
RightHand  -0.120597 3.15249 -1.87368
LeftUpLeg  -14.3022 -4.11624 6.29924
LeftLeg  53.6095 -0.702749 -0.51655
LeftFoot  -3.42309 0.108042 -1.22595
LeftToes  2.52475e-009 -1.26109e-010 3.16044e-011
135
root  -6.28299 38.2488 -4.41616 -6.13182 -58.2165 5.13255
RightUpLeg  -15.1435 7.88496 -5.64455
RightLeg  32.0156 4.85314 3.00781
RightFoot  -17.0899 -0.00201462 2.26487
RightToes  -3.0268e-009 0 -3.6325e-017
Spine  12.0545 -0.692356 -2.87493
Spine1  2.8178 -1.00662 2.68861
HEad  -18.0666 -18.0505 3.06811
LeftShoulder1  -0.600323 4.96299 -34.9634
LeftArm  1.84212 4.79897 -42.4819
LeftForeArm  31.0883 -40.5243 -7.56248
LeftHand  -0.0424303 6.99123 -0.294208
RightShoulder  -1.39888 -6.99582 33.5147
RightArm  19.5412 0.234222 40.6308
RightForeArm  10.324 17.3856 5.19187
RightHand  -0.116424 3.70279 -1.75349
LeftUpLeg  -15.2766 -2.89129 3.8153
LeftLeg  52.1361 0.562161 1.22161
LeftFoot  -4.352 0.113625 -1.42974
LeftToes  2.52475e-009 -1.26109e-010 3.16044e-011
136
root  -7.30237 38.6733 -4.08867 -7.64796 -62.1848 6.39995
RightUpLeg  -11.6855 9.18431 -5.16513
RightLeg  28.1464 7.08069 3.85789
RightFoot  -16.8823 -0.0212947 1.92103
RightToes  -3.0268e-009 0 -3.6325e-017
Spine  10.7264 -0.348765 -2.35734
Spine1  2.93638 -0.669633 2.55542
HEad  -17.6032 -16.0579 1.94282
LeftShoulder1  -0.516431 4.77005 -34.6117
LeftArm  2.35637 5.37907 -41.3935
LeftForeArm  30.0374 -36.754 -6.55042
LeftHand  -0.047245 6.94682 -0.458963
RightShoulder  -1.29692 -6.81622 32.6263
RightArm  19.5448 3.23031 41.5593
RightForeArm  8.53044 20.3293 4.59328
RightHand  -0.166138 3.84418 -2.2549
LeftUpLeg  -16.4529 -1.96887 1.65084
LeftLeg  48.1732 2.74838 3.68281
LeftFoot  -5.74756 0.116328 -1.68127
LeftToes  2.52475e-009 -1.26109e-010 3.16044e-011
137
root  -8.32463 39.0104 -3.76783 -10.1409 -66.2273 8.69027
RightUpLeg  -8.56768 11.2063 -5.00686
RightLeg  24.9582 8.85984 4.29159
RightFoot  -16.5365 -0.0633356 1.0613
RightToes  -3.0268e-009 0 -3.6325e-017
Spine  10.1717 0.102783 -2.16585
Spine1  2.27369 -0.225831 2.30988
HEad  -17.1213 -14.0021 1.07422
LeftShoulder1  -0.431235 4.56948 -34.3202
LeftArm  3.57024 6.26777 -39.8362
LeftForeArm  28.9784 -33.2323 -5.69786
LeftHand  -0.0861805 8.29406 -1.58701
RightShoulder  -1.27321 -6.7737 32.4088
RightArm  18.9304 5.96498 42.1495
RightForeArm  6.56872 23.5519 4.68023
RightHand  -0.390823 4.86854 -4.7492
LeftUpLeg  -17.3136 -1.70507 -0.396129
LeftLeg  42.1491 4.7927 5.0405
LeftFoot  -6.3817 0.134991 -2.22508
LeftToes  2.52475e-009 -1.26109e-010 3.16044e-011
138
root  -9.35229 39.2533 -3.46604 -12.6368 -69.8193 10.8538
RightUpLeg  -5.48626 13.2528 -4.39323
RightLeg  22.2072 10.2974 4.11339
RightFoot  -16.1063 -0.1058 0.0851667
RightToes  -3.0268e-009 0 -3.6325e-017
Spine  9.73065 0.271989 -2.02796
Spine1  2.23367 -0.108618 2.24949
HEad  -17.4198 -11.4643 0.463904
LeftShoulder1  -0.457845 4.64577 -33.9321
LeftArm  5.03995 6.97342 -38.4582
LeftForeArm  27.1251 -29.7498 -4.9659
LeftHand  -0.0869243 8.47071 -1.46094
RightShoulder  -1.2635 -6.77168 32.1335
RightArm  18.8785 9.37147 43.414
RightForeArm  8.46876 26.4389 5.2308
RightHand  -0.319791 5.04659 -3.82888
LeftUpLeg  -17.8715 -1.97077 -1.44361
LeftLeg  34.558 4.57808 3.78299
LeftFoot  -5.82578 0.166797 -2.74326
LeftToes  2.52475e-009 -1.26109e-010 3.16044e-011
139
root  -10.4053 39.3929 -3.14007 -15.777 -73.1543 13.4799
RightUpLeg  -2.34344 12.1681 -3.67187
RightLeg  20.1917 14.5355 3.86377
RightFoot  -16.1425 -0.148174 -0.931572
RightToes  -3.0268e-009 0 -3.6325e-017
Spine  9.05923 0.480622 -1.68815
Spine1  2.97917 0.103841 2.02998
HEad  -17.8675 -10.186 0.274064
LeftShoulder1  -0.404387 4.52058 -33.6261
LeftArm  6.35037 7.42111 -37.6406
LeftForeArm  25.5429 -25.8374 -4.17247
LeftHand  -0.105051 8.26254 -2.25336
RightShoulder  -1.16992 -6.57685 31.5376
RightArm  19.2057 12.391 44.9369
RightForeArm  8.64604 29.0058 5.82306
RightHand  -0.491677 5.10434 -5.74218
LeftUpLeg  -17.8886 -2.84249 -1.83213
LeftLeg  26.0695 2.43132 1.61722
LeftFoot  -4.32668 0.243883 -3.50795
LeftToes  2.52475e-009 -1.26109e-010 3.16044e-011
140
root  -11.4852 39.4527 -2.82885 -19.6657 -76.3938 16.9689
RightUpLeg  0.343079 9.75549 -3.275
RightLeg  18.9032 20.0609 3.64464
RightFoot  -16.2029 -0.216672 -2.52292
RightToes  -3.0268e-009 0 -3.6325e-017
Spine  8.65644 0.8123 -1.42642
Spine1  3.23097 0.477792 1.69731
HEad  -18.2336 -8.13467 0.388447
LeftShoulder1  -0.364289 4.42511 -33.3964
LeftArm  7.63986 7.82759 -36.7068
LeftForeArm  23.8852 -21.9337 -3.95729
LeftHand  -0.157509 9.29471 -3.00703
RightShoulder  -1.11135 -6.45352 31.1365
RightArm  20.4102 14.9801 46.152
RightForeArm  9.82876 30.975 6.2371
RightHand  -0.428236 4.03937 -5.54089
LeftUpLeg  -17.7416 -3.89745 -1.60492
LeftLeg  17.7322 -0.0200275 0.393627
LeftFoot  -2.18287 0.397213 -4.8107
LeftToes  2.52475e-009 -1.26109e-010 3.16044e-011
141
root  -12.6021 39.452 -2.50195 -24.4121 -79.2402 21.0595
RightUpLeg  3.32749 7.92066 -2.96627
RightLeg  17.6365 24.5418 3.1768
RightFoot  -16.4921 -0.283611 -3.82315
RightToes  -3.0268e-009 0 -3.6325e-017
Spine  8.44033 0.973608 -1.35237
Spine1  3.60051 0.653921 1.51108
HEad  -18.2837 -6.0386 -0.142585
LeftShoulder1  -0.332864 4.35016 -33.1934
LeftArm  4.79466 8.7406 -35.9454
LeftForeArm  26.8693 -18.4046 -5.20898
LeftHand  -0.217197 10.4985 -3.47983
RightShoulder  -1.06558 -6.36491 30.6944
RightArm  22.4856 17.306 47.5394
RightForeArm  9.73862 31.9256 6.48248
RightHand  -0.446247 3.62466 -5.98695
LeftUpLeg  -17.3247 -2.89981 -1.43147
LeftLeg  11.0557 -3.1116 0.07734
LeftFoot  -1.00691 0.464626 -5.07721
LeftToes  2.52475e-009 -1.26109e-010 3.16044e-011
142
root  -13.7607 39.3702 -2.14485 -32.1081 -81.775 28.0245
RightUpLeg  6.05695 8.63142 -2.87976
RightLeg  17.1607 26.1512 3.18735
RightFoot  -17.2024 -0.370033 -4.94948
RightToes  -3.0268e-009 0 -3.6325e-017
Spine  7.71724 1.04775 -1.4492
Spine1  4.77627 0.817238 1.09623
HEad  -18.0176 -4.04423 0.172807
LeftShoulder1  -0.35374 4.40139 -33.2694
LeftArm  1.30348 9.42967 -34.9706
LeftForeArm  31.4063 -15.1035 -6.5767
LeftHand  -0.263058 11.2285 -3.80907
RightShoulder  -0.998305 -6.20931 30.3393
RightArm  25.0378 19.2664 48.9521
RightForeArm  9.58276 32.0362 6.52032
RightHand  -0.403709 4.03062 -5.29571
LeftUpLeg  -16.9579 -0.658956 -1.66959
LeftLeg  7.14013 -4.83429 0.314468
LeftFoot  -0.931401 0.438615 -4.75431
LeftToes  2.52475e-009 -1.26109e-010 3.16044e-011
143
root  -14.9851 39.1793 -1.76642 -42.5715 -83.6774 37.634
RightUpLeg  8.69826 12.504 -2.25147
RightLeg  17.6417 23.7705 3.55741
RightFoot  -18.4769 -0.495028 -5.92498
RightToes  -3.0268e-009 0 -3.6325e-017
Spine  7.3563 1.1799 -1.30235
Spine1  5.45573 1.16069 0.300133
HEad  -17.6699 -2.10699 0.0591371
LeftShoulder1  -0.367857 4.43786 -33.2162
LeftArm  -0.729776 10.2663 -34.3188
LeftForeArm  34.6447 -12.894 -7.32077
LeftHand  -0.317202 11.6053 -4.51924
RightShoulder  -1.00379 -6.23433 30.2028
RightArm  27.6319 20.1915 49.7187
RightForeArm  9.31132 31.606 6.42596
RightHand  -0.310986 5.06295 -3.78025
LeftUpLeg  -16.5852 0.229392 -1.58923
LeftLeg  6.29422 -3.68246 0.332289
LeftFoot  -1.3585 0.425758 -4.74278
LeftToes  2.52475e-009 -1.26109e-010 3.16044e-011
144
root  -16.2505 38.8848 -1.35635 -52.6327 -84.7733 47.0755
RightUpLeg  10.8255 18.0126 -1.23112
RightLeg  19.2452 18.9321 4.88481
RightFoot  -20.1176 -0.65034 -6.69447
RightToes  -3.0268e-009 0 -3.6325e-017
Spine  6.95661 1.19924 -1.43779
Spine1  5.88106 1.2791 -0.0353238
HEad  -17.2432 -0.694577 0.674142
LeftShoulder1  -0.293124 4.25913 -32.701
LeftArm  -1.9802 11.684 -34.5377
LeftForeArm  36.5481 -11.6242 -7.63161
LeftHand  -0.195754 9.98978 -3.4362
RightShoulder  -1.03076 -6.29044 30.4372
RightArm  28.7658 19.8652 49.6413
RightForeArm  8.55603 31.328 6.39892
RightHand  -0.404571 3.90696 -5.28778
LeftUpLeg  -16.8168 0.412684 -1.59481
LeftLeg  8.86915 -1.02091 0.379849
LeftFoot  -0.621371 0.307576 -3.36625
LeftToes  2.52475e-009 -1.26109e-010 3.16044e-011
145
root  -17.5626 38.6176 -0.929227 -66.016 -85.612 59.5883
RightUpLeg  13.1796 21.2695 -0.498692
RightLeg  20.9704 16.026 6.36642
RightFoot  -21.1815 -0.760031 -7.16814
RightToes  -3.0268e-009 0 -3.6325e-017
Spine  6.51532 1.38944 -1.87007
Spine1  6.82042 1.50771 -0.164132
HEad  -17.076 0.179993 0.73354
LeftShoulder1  -0.366291 4.4338 -33.2042
LeftArm  -1.61836 12.539 -34.1712
LeftForeArm  36.6819 -11.4691 -7.75727
LeftHand  -0.223647 9.81061 -3.8673
RightShoulder  -1.06245 -6.35436 30.7203
RightArm  29.2294 18.6097 48.9529
RightForeArm  9.62158 30.6423 6.16636
RightHand  -0.227494 4.3026 -2.99184
LeftUpLeg  -16.8022 0.791999 -1.83918
LeftLeg  13.6928 0.860238 0.6093
LeftFoot  3.68054 0.089962 -0.838642
LeftToes  2.52475e-009 -1.26109e-010 3.16044e-011
146
root  -18.8576 38.3636 -0.499187 -81.3869 -85.8863 73.924
RightUpLeg  14.348 19.8422 -1.53383
RightLeg  25.067 18.2954 8.97512
RightFoot  -21.4938 -0.700266 -6.30275
RightToes  -3.0268e-009 0 -3.6325e-017
Spine  6.99631 1.62023 -2.91937
Spine1  6.88248 1.6042 0.0407836
HEad  -16.5755 0.478682 1.43499
LeftShoulder1  -0.561638 4.89299 -34.2468
LeftArm  -1.17952 12.6584 -33.6099
LeftForeArm  36.8805 -11.1274 -8.02133
LeftHand  -0.451627 12.2518 -6.24584
RightShoulder  -1.12728 -6.46948 31.474
RightArm  30.1062 16.5649 47.5461
RightForeArm  7.2133 29.3532 5.98688
RightHand  -0.356498 4.42711 -4.50439
LeftUpLeg  -16.6229 1.34481 -2.4304
LeftLeg  19.3368 1.18369 0.782644
LeftFoot  3.88222 -0.19567 1.34276
LeftToes  2.52475e-009 -1.26109e-010 3.16044e-011
147
root  -20.0812 38.177 -0.0993096 -91.942 -85.3644 83.7487
RightUpLeg  12.7578 16.4968 -4.62277
RightLeg  33.2847 21.8239 14.5936
RightFoot  -19.4798 -0.35226 -3.09069
RightToes  -3.0268e-009 0 -3.6325e-017
Spine  7.61112 1.88522 -4.78051
Spine1  6.68405 1.53571 0.548071
HEad  -16.5602 -0.158308 2.34474
LeftShoulder1  -0.664923 5.11539 -35.0811
LeftArm  -2.13112 12.2882 -33.8865
LeftForeArm  37.439 -10.1482 -8.21829
LeftHand  -0.267904 11.068 -4.11604
RightShoulder  -1.21984 -6.63694 32.3656
RightArm  30.7303 13.7832 46.5036
RightForeArm  6.86145 26.6452 5.3022
RightHand  -0.233768 4.67147 -2.98328
LeftUpLeg  -16.2694 2.00967 -3.61758
LeftLeg  24.3175 1.42659 1.04303
LeftFoot  0.0396451 -0.260296 2.59541
LeftToes  2.52475e-009 -1.26109e-010 3.16044e-011
